/* XPM */
static char *_804338d26fc40cb829fa6dda317369cHWgTiKVzx7sEXhTy[] = {
/* columns rows colors chars-per-pixel */
"32 32 14 1 ",
"  c None",
". c black",
"X c #575200",
"o c #7C7600",
"O c #70533B",
"+ c gray34",
"@ c #7C7C7C",
"# c #9C5A3C",
"$ c #A07755",
"% c #B2A900",
"& c #E5AA7A",
"* c #C9C34D",
"= c #B2B2B2",
"- c #D9C4B4",
/* pixels */
"             &&&&&&&            ",
"            &&&&&&&&&           ",
"           &&&&&&&&&&&          ",
"          &&&&&&&&&&&&&         ",
"          &&&&&&&&&&&&&         ",
"          &.....&.....&         ",
"         ...--&.&.--&...        ",
"         &&.-&&.$.-&&.&&        ",
"         &&....&$&....&&        ",
"           &&&&$$&&&&&          ",
"           &&&$###$&&&          ",
"            &$#&&&#$&           ",
"            &$#&#&#$&           ",
"             o#####o            ",
"            %o=@@==o%           ",
"            %%%===o%%           ",
"          %%XX%%@%%XX%%         ",
"         %%%%XX%=%XX%%%%        ",
"         %%%%%oX@Xo%%%%%        ",
"        %%%%%%%%@%%%%%%%%       ",
"        %%ooo%%%@%%%ooo%%       ",
"        %%o o%%%@%%%% o%%       ",
"         oo o%%%+%%%o %o        ",
"         &O oo%%@%%%o O&        ",
"         &$ oo%%@%%%o $&        ",
"         &  oo%o %%oo  &        ",
"            %o%o %%oo           ",
"            oo%o %%oo           ",
"            oo%% oooo           ",
"             Xo   Xo            ",
"           %%%%* *%%%%          ",
"          ooooo* *ooooo         "
};
